<svg width="120" height="120" viewBox="0 0 120 120" fill="none" xmlns="http://www.w3.org/2000/svg">
<path d="M42.5 77.5C46.6948 76.8772 50.5258 74.7669 53.2941 71.5543C56.0623 68.3416 57.5832 64.2408 57.5792 60C57.6003 54.6766 59.5314 49.5376 63.0213 45.5178C66.5113 41.4979 71.3282 38.8643 76.5958 38.0958L84.15 37.0167C83.9458 36.7833 83.7708 36.55 83.5375 36.3167C74.0292 26.8083 55.7708 29.6667 42.7042 42.675C31.65 53.875 27.9167 68.75 33.05 78.8417L42.5 77.5Z" fill="white"/>
<path d="M62.1292 60C62.1101 65.3224 60.1841 70.4617 56.7005 74.4858C53.2169 78.5098 48.4065 81.1521 43.1417 81.9333L35.9667 82.9542L36.4042 83.45C45.9125 92.9583 64.1708 90.1292 77.2375 77.1208C88.2333 66.1542 92.0833 51.25 86.9792 41.3042L77.2375 42.7042C73.0695 43.3096 69.2555 45.386 66.4846 48.558C63.7138 51.73 62.1689 55.7884 62.1292 60Z" fill="white"/>
<circle cx="60" cy="60" r="56" stroke="white" stroke-width="8"/>
</svg>
